<svg xmlns="http://www.w3.org/2000/svg" xmlns:xlink="http://www.w3.org/1999/xlink" viewBox="0 0 48.79 40.28"><defs><linearGradient id="linear-gradient" x1="24.79" y1="-11.07" x2="24.12" y2="49.54" gradientUnits="userSpaceOnUse"><stop offset="0.35" stop-color="#cde9e3"/><stop offset="1" stop-color="#cde9e3" stop-opacity="0"/></linearGradient><linearGradient id="linear-gradient-2" x1="24.93" y1="-11.07" x2="24.26" y2="49.54" gradientUnits="userSpaceOnUse"><stop offset="0" stop-color="#cde9e3"/><stop offset="1" stop-color="#cde9e3" stop-opacity="0"/></linearGradient></defs><g id="Layer_2" data-name="Layer 2"><g id="Layer_1-2" data-name="Layer 1"><path d="M48.79,24.4a3.11,3.11,0,0,1-5.31,2.2L24.4,7.52,5.32,26.6A3.12,3.12,0,1,1,.91,22.19L22.19.91a3.13,3.13,0,0,1,4.41,0L47.88,22.19A3.11,3.11,0,0,1,48.79,24.4Z" style="fill:url(#linear-gradient)"/><path d="M40,37.17a3.12,3.12,0,0,1-5.32,2.2L24.4,29.11,14.14,39.37A3.11,3.11,0,1,1,9.73,35L22.19,22.51a3.11,3.11,0,0,1,4.41,0L39.06,35A3.07,3.07,0,0,1,40,37.17Z" style="fill:url(#linear-gradient-2)"/></g></g></svg>