<svg xmlns="http://www.w3.org/2000/svg" xmlns:xlink="http://www.w3.org/1999/xlink" viewBox="0 0 221.23 227.42"><defs><linearGradient id="linear-gradient" x1="96.36" y1="-7.83" x2="203.12" y2="208.65" gradientUnits="userSpaceOnUse"><stop offset="0" stop-color="#0fb08e"/><stop offset="1" stop-color="#0faf8d" stop-opacity="0"/></linearGradient><linearGradient id="linear-gradient-2" x1="13.12" y1="58.44" x2="217.73" y2="68.82" xlink:href="#linear-gradient"/><linearGradient id="linear-gradient-3" x1="241.18" y1="154.86" x2="-3.47" y2="110.38" xlink:href="#linear-gradient"/><linearGradient id="linear-gradient-4" x1="275.02" y1="114.12" x2="33.34" y2="216.43" xlink:href="#linear-gradient"/><linearGradient id="linear-gradient-5" x1="73.64" y1="237.63" x2="101.81" y2="-36.68" xlink:href="#linear-gradient"/></defs><g id="Layer_2" data-name="Layer 2"><g id="Layer_1-2" data-name="Layer 1"><path d="M210.05,120.25c-2.57-4.42-6.21-7.8-9.94-11.18h0a96.29,96.29,0,0,0-42.46-21.91,2.27,2.27,0,0,1-1.76-2.46,94.9,94.9,0,0,0-5.47-43.93,60.54,60.54,0,0,0-6.91,3.81l-.21.13a86.94,86.94,0,0,1,3.51,46.16,2.4,2.4,0,0,0,2,2.83,88.05,88.05,0,0,1,54.42,30.05,101.59,101.59,0,0,1-41.61,21.7,2.33,2.33,0,0,0-1.77,2.39A101,101,0,0,1,148,200.45c52.25,18.67,91.71-34.44,62-80.2" style="fill:url(#linear-gradient)"/><path d="M148.53,28a96.91,96.91,0,0,0-44.1,38.83,2.25,2.25,0,0,1-2.88.94,95.32,95.32,0,0,0-43.28-8.38,61.56,61.56,0,0,0,1.28,7.83l0,.18a86.7,86.7,0,0,1,45,10.94,2.4,2.4,0,0,0,3.32-1,88.34,88.34,0,0,1,45.26-42.54l1.11,2.71A99.78,99.78,0,0,1,161,81.09a2.33,2.33,0,0,0,1.72,2.42,100.29,100.29,0,0,1,38.08,19.86h0c2.82,2.45,5.58,5,8.19,7.67a51.61,51.61,0,0,0,8.84-17.53c16-42.82-28.2-83.11-69.36-65.52" style="fill:url(#linear-gradient-2)"/><path d="M136.24,185.27l.13-.3c-.68-.45-1.35-.9-2-1.38a87.57,87.57,0,0,1-28-34,2.38,2.38,0,0,0-3.28-1.09,87.64,87.64,0,0,1-61.66,7.69,102.1,102.1,0,0,1,20.88-42,2.33,2.33,0,0,0,0-3A100.67,100.67,0,0,1,41.09,61.59l0-.18a52.13,52.13,0,0,0-15.13,7h0C-24.42,101.52,4.47,169.69,62,166.76A95.8,95.8,0,0,0,99.77,159a2.32,2.32,0,0,1,2.94,1,95.27,95.27,0,0,0,30,32.2,58.71,58.71,0,0,0,3.52-6.93" style="fill:url(#linear-gradient-3)"/><path d="M190.84,117.46l-.14-.11A87,87,0,0,1,147.91,135a2.39,2.39,0,0,0-2.06,2.79c3.6,20.65-.3,43-11.79,61l-2.4-1.55a99.24,99.24,0,0,1-31-31.3,2.31,2.31,0,0,0-2.82-.94,101,101,0,0,1-53.68,5c-2.65,51.3,56.78,77.8,91.75,38.77,15.23-16.48,20.75-42.59,18.86-64.55a2.39,2.39,0,0,1,1.86-2.5,95.72,95.72,0,0,0,40-18.77,59.47,59.47,0,0,0-5.83-5.45" style="fill:url(#linear-gradient-4)"/><path d="M136.86,17.63l0,0c-35.52-38.95-97.61-8.21-91,43v0a96.42,96.42,0,0,0,22.84,50.59,2.28,2.28,0,0,1,0,3A96.06,96.06,0,0,0,47.31,152.9,59.53,59.53,0,0,0,55,154.12l.3,0a87.11,87.11,0,0,1,24.29-39.52,2.39,2.39,0,0,0,0-3.46c-1.31-1.29-2.59-2.61-3.82-4A88.43,88.43,0,0,1,53.23,54.85a101.37,101.37,0,0,1,46.44,6.88,2.33,2.33,0,0,0,2.85-.89A100.77,100.77,0,0,1,143,25.28a51.87,51.87,0,0,0-6.16-7.65" style="fill:url(#linear-gradient-5)"/></g></g></svg>