<svg xmlns="http://www.w3.org/2000/svg" xmlns:xlink="http://www.w3.org/1999/xlink" viewBox="0 0 31.3 31.27"><defs><linearGradient id="linear-gradient" x1="-6" y1="12.8" x2="38.85" y2="18.68" gradientUnits="userSpaceOnUse"><stop offset="0" stop-color="#f9a44d"/><stop offset="0.21" stop-color="#fbb369"/><stop offset="0.54" stop-color="#fdc991"/><stop offset="0.81" stop-color="#fed7aa"/><stop offset="0.97" stop-color="#ffdcb3"/></linearGradient></defs><g style="isolation:isolate"><g id="Layer_2" data-name="Layer 2"><g id="Layer_1-2" data-name="Layer 1"><path d="M31.28,15.55A15.64,15.64,0,0,1,0,15.72c0-.23,0-.47,0-.7a15.64,15.64,0,0,1,31.25-.17C31.27,15.08,31.28,15.32,31.28,15.55Z" style="fill:url(#linear-gradient)"/><path d="M15,11.15c0,2.5-1.28,4.54-2.89,4.55s-2.93-2-2.94-4.52v-.12c0-2.45,1.31-4.43,2.89-4.44S14.94,8.58,15,11Z" style="fill:#f26c6c;mix-blend-mode:multiply;opacity:0.28"/><path d="M16.23,11.14c0,2.51,1.33,4.53,2.94,4.52s2.91-2.05,2.9-4.55a.49.49,0,0,0,0-.12c0-2.45-1.35-4.41-2.94-4.4s-2.86,2-2.89,4.43Z" style="fill:#f26c6c;mix-blend-mode:multiply;opacity:0.28"/><path d="M15,12.85c0,2.51-1.28,4.54-2.89,4.55s-2.93-2-2.94-4.52v-.12c0-2.45,1.31-4.42,2.89-4.43S15,10.28,15,12.73Z" style="fill:#fff"/><path d="M13.75,12.86a2.88,2.88,0,0,1-.47,1.64,1.51,1.51,0,0,1-1.18.71c-.92,0-1.67-1-1.67-2.34a2.49,2.49,0,0,1,1-2.12,1.24,1.24,0,0,1,.69-.23C13,10.52,13.74,11.56,13.75,12.86Z" style="fill:#6f4363"/><path d="M13.75,12.85h-.14c-.92,0-1.66-1-1.68-2.33h.14C13,10.52,13.74,11.56,13.75,12.85Z" style="fill:#fff;mix-blend-mode:overlay;opacity:0.48"/><path d="M16.25,12.84c0,2.51,1.33,4.53,2.94,4.52s2.9-2,2.89-4.55v-.12c-.06-2.45-1.36-4.41-2.94-4.4s-2.87,2-2.89,4.43A.24.24,0,0,0,16.25,12.84Z" style="fill:#fff"/><path d="M17.5,12.84A2.91,2.91,0,0,0,18,14.47a1.45,1.45,0,0,0,1.19.7c.91,0,1.65-1.06,1.64-2.35a2.52,2.52,0,0,0-1-2.12,1.18,1.18,0,0,0-.7-.21C18.23,10.49,17.5,11.54,17.5,12.84Z" style="fill:#6f4363"/><path d="M17.5,12.83h.14c.92,0,1.65-1.06,1.65-2.35h-.14C18.24,10.49,17.5,11.54,17.5,12.83Z" style="fill:#fff;mix-blend-mode:overlay;opacity:0.48"/><path d="M17.69,7.13a.18.18,0,0,1-.21-.26A1.91,1.91,0,0,1,18,6.3a1.85,1.85,0,0,1,1.15-.41,1.83,1.83,0,0,1,1.16.39.8.8,0,0,1,.21.2,2,2,0,0,1,.19.22l.09.16a.19.19,0,0,1-.22.26l-.16-.06c-.17,0-.31-.11-.46-.13a3.25,3.25,0,0,0-.8-.1,3.13,3.13,0,0,0-.82.12Z" style="fill:#6f4363"/><path d="M10.62,7.17a.18.18,0,0,1-.21-.26,2.08,2.08,0,0,1,.49-.58,1.91,1.91,0,0,1,1.15-.4,1.83,1.83,0,0,1,1.16.39.8.8,0,0,1,.21.2,2,2,0,0,1,.19.22l.09.16a.18.18,0,0,1-.22.26l-.16-.06c-.17,0-.3-.11-.46-.13a2.83,2.83,0,0,0-.8-.1,3.06,3.06,0,0,0-.81.12Z" style="fill:#6f4363"/><path d="M19.75,20.05a.45.45,0,0,1,0,.16,1.29,1.29,0,0,1-.55.81l-.39.25a1,1,0,0,1-.17.1h0a6,6,0,0,1-2.84.8h-.1a.14.14,0,0,1-.09,0,6,6,0,0,1-2.86-.77l-.17-.1a5.72,5.72,0,0,1-.49-.34,1.36,1.36,0,0,1-.45-.72,1.53,1.53,0,0,1,0-.3,1.4,1.4,0,0,1,.1-.46,1.32,1.32,0,0,1,.44-.53.77.77,0,0,1,.21-.14,1.69,1.69,0,0,1,1.76.12.21.21,0,0,1,.08.06l.08.06a2.38,2.38,0,0,0,1.18.41h.34a2.94,2.94,0,0,0,1.3-.44l.16-.11.06,0A1.69,1.69,0,0,1,19,18.78a1.56,1.56,0,0,1,.34.23,1.31,1.31,0,0,1,.31.44A1.11,1.11,0,0,1,19.75,20.05Z" style="fill:#6f4363"/><path d="M18.15,21.61l-.17.07a5.6,5.6,0,0,1-2.22.5h-.1a.14.14,0,0,1-.09,0,5.77,5.77,0,0,1-2.22-.46l-.17-.07a3.9,3.9,0,0,1,2.49-.79A4,4,0,0,1,18.15,21.61Z" style="fill:#f26c6c"/><path d="M7.29,4.33A7.9,7.9,0,0,0,5.08,6.58" style="fill:none;stroke:#fff;stroke-linecap:round;stroke-miterlimit:10;stroke-width:0.892524463686381px"/><path d="M8.63,3.27a5.08,5.08,0,0,1,.71-.47" style="fill:none;stroke:#fff;stroke-linecap:round;stroke-miterlimit:10;stroke-width:0.892524463686381px"/><g style="mix-blend-mode:multiply;opacity:0.28"><path d="M31.3,15.55A15.64,15.64,0,0,1,0,15.72c0-.23,0-.47,0-.7s0-.52,0-.77a15.64,15.64,0,0,0,31.14-.17c0,.25.05.51.06.77S31.3,15.32,31.3,15.55Z" style="fill:#f26c6c"/></g></g></g></g></svg>