<svg xmlns="http://www.w3.org/2000/svg" viewBox="0 0 156.98 72.02"><g data-name="Layer 2"><g data-name="Layer 1"><path d="M0 48.55V11.66a1.61 1.61 0 011.61-1.61h16.21c8.14 0 11.86 4.47 11.86 9.63 0 4.73-2.37 8.23-6.86 9.34a.05.05 0 000 .1A10.07 10.07 0 0131 39.21c0 6-4.36 10.95-12.43 10.95h-17A1.61 1.61 0 010 48.55M16 27c4.93 0 6.59-2.75 6.59-6s-1.66-5.55-6.65-5.55h-9V27zm.51 17.7c5.5 0 7.57-2.74 7.57-6.35s-2.24-6.59-7.57-6.59H6.93v12.95zM33.56 48.55v-38.5h5.32a1.61 1.61 0 011.61 1.61v38.5h-5.33a1.61 1.61 0 01-1.6-1.61M44.4 50.16v-38.5a1.61 1.61 0 011.6-1.61h15.25c10.6 0 17.19 7.57 17.19 19.88s-6.31 20.23-16.91 20.23zM60 44.71c7.45 0 11.18-5 11.18-14.66S67.32 15.5 59.87 15.5h-8.54v29.21zM100 50.16h-6.06c-2.65 0-3.69-.84-4.56-3.25L76.69 10.05h5.77a2.5 2.5 0 012.29 1.64l10.62 31.8 10-29.9a4.79 4.79 0 014.66-3.54H117a.22.22 0 01.2.16c.14.53-.24.87-.7 1.18-.68.47-1.15.68-1.77 1.15a11.6 11.6 0 00-3.39 5.14c-.31.79-.59 1.59-.87 2.39z" fill="#016b69"/><path d="M155 21.61a8.54 8.54 0 00-1.78-2 17.35 17.35 0 00-7.63-3.94.4.4 0 01-.32-.44 17.15 17.15 0 00-1-7.89A10.39 10.39 0 00143 8a15.68 15.68 0 01.63 8.3.43.43 0 00.36.51 15.79 15.79 0 019.78 5.4 18.35 18.35 0 01-7.48 3.9.42.42 0 00-.32.43 18.09 18.09 0 01-2.15 9.46c9.39 3.36 16.48-6.19 11.15-14.41" fill="#f7b51e"/><path d="M143.92 5a17.42 17.42 0 00-7.92 7 .4.4 0 01-.51.17 17 17 0 00-7.78-1.51 10.6 10.6 0 00.23 1.41 15.6 15.6 0 018.09 2 .43.43 0 00.6-.19 15.87 15.87 0 018.13-7.64l.2.49a17.84 17.84 0 011.21 7.84.44.44 0 00.31.44 17.86 17.86 0 016.85 3.57c.51.44 1 .89 1.47 1.38a9 9 0 001.59-3.15c2.86-7.7-5.08-14.94-12.47-11.81M141.71 33.29l-.36-.25a15.66 15.66 0 01-5-6.1.44.44 0 00-.6-.2 15.67 15.67 0 01-11.07 1.38 18.26 18.26 0 013.75-7.55.42.42 0 000-.54 18.06 18.06 0 01-3.82-8.91 9.1 9.1 0 00-2.72 1.25c-9 5.95-3.86 18.2 6.49 17.68a17.2 17.2 0 006.78-1.39.41.41 0 01.52.17 17.16 17.16 0 005.4 5.79 11.86 11.86 0 00.63-1.25" fill="#f7b51e"/><path d="M151.52 21.11a15.7 15.7 0 01-7.69 3.16.42.42 0 00-.37.5 15.68 15.68 0 01-2.12 11l-.43-.28a17.79 17.79 0 01-5.57-5.62.42.42 0 00-.51-.17 18.22 18.22 0 01-9.65.89c-.47 9.22 10.21 14 16.49 7 2.74-3 3.73-7.65 3.39-11.6a.42.42 0 01.34-.45 17.29 17.29 0 007.19-3.37 10.79 10.79 0 00-1-1M141.82 3.17c-6.38-7-17.53-1.47-16.36 7.73a17.25 17.25 0 004.1 9.09.4.4 0 010 .55 17.3 17.3 0 00-3.82 6.94 10.23 10.23 0 001.38.21h.06a15.66 15.66 0 014.36-7.1.43.43 0 000-.62q-.36-.35-.69-.72a15.9 15.9 0 01-4.06-9.4 18.26 18.26 0 018.35 1.23.41.41 0 00.51-.16 18.16 18.16 0 017.28-6.39 9 9 0 00-1.11-1.37" fill="#f7b51e"/><text transform="translate(0 69.02)" font-size="12" fill="#016b69" font-family="Roboto-Medium,Roboto Medium" font-weight="500">CHI NHÁNH SỞ GIAO DỊCH 1</text></g></g></svg>