<svg xmlns="http://www.w3.org/2000/svg" viewBox="0 0 31.28 31.27"><g style="isolation:isolate"><g id="Layer_2" data-name="Layer 2"><g id="Layer_1-2" data-name="Layer 1"><path d="M31.27,16A15.63,15.63,0,0,1,0,15.28c0-.23,0-.47,0-.7a15.63,15.63,0,0,1,31.23.71C31.28,15.53,31.28,15.76,31.27,16Z" style="fill:#d1d3d4"/><path d="M15.14,10a3.27,3.27,0,0,1-3,3.38A3.17,3.17,0,0,1,9.3,9.86a.28.28,0,0,0,0-.09,3.24,3.24,0,0,1,3-3.29,3.15,3.15,0,0,1,2.81,3.39Z" style="fill:#a7a9ac"/><path d="M15.08,11.28a3.25,3.25,0,0,1-3,3.38,3.15,3.15,0,0,1-2.81-3.48.28.28,0,0,1,0-.09,3.24,3.24,0,0,1,3-3.29,3.14,3.14,0,0,1,2.81,3.39Z" style="fill:#fff"/><path d="M14.42,11.27a1.79,1.79,0,0,1-.51,1.23,1.59,1.59,0,0,1-1.2.51,1.69,1.69,0,0,1-1.61-1.8,1.8,1.8,0,0,1,1-1.58,1.57,1.57,0,0,1,.71-.16A1.69,1.69,0,0,1,14.42,11.27Z" style="fill:#a7a9ac"/><path d="M14.42,11.26h-.14a1.69,1.69,0,0,1-1.6-1.79h.14A1.69,1.69,0,0,1,14.42,11.26Z" style="fill:#fff;mix-blend-mode:overlay;opacity:0.48"/><path d="M16.38,10a3.15,3.15,0,0,0,2.81,3.48,3.25,3.25,0,0,0,3-3.38V10A3.14,3.14,0,0,0,19.39,6.6a3.24,3.24,0,0,0-3,3.29Z" style="fill:#a7a9ac"/><path d="M16.32,11.3a3.15,3.15,0,0,0,2.81,3.48,3.25,3.25,0,0,0,3-3.38.27.27,0,0,0,0-.09,3.12,3.12,0,0,0-2.81-3.38,3.22,3.22,0,0,0-3,3.28A.28.28,0,0,0,16.32,11.3Z" style="fill:#fff"/><path d="M17,11.32a1.78,1.78,0,0,0,.44,1.24,1.52,1.52,0,0,0,1.17.55,1.8,1.8,0,0,0,.8-3.36,1.51,1.51,0,0,0-.7-.17A1.74,1.74,0,0,0,17,11.32Z" style="fill:#a7a9ac"/><path d="M17,11.31h.14a1.75,1.75,0,0,0,1.71-1.74h-.14A1.73,1.73,0,0,0,17,11.31Z" style="fill:#fff;mix-blend-mode:overlay;opacity:0.48"/><path d="M18,7.19a.19.19,0,0,1-.21-.27,1.82,1.82,0,0,1,.51-.56A1.94,1.94,0,0,1,19.41,6a1.81,1.81,0,0,1,1.14.42.88.88,0,0,1,.22.21,2,2,0,0,1,.17.23L21,7a.18.18,0,0,1-.23.25l-.15-.06c-.17,0-.31-.11-.46-.14a2.88,2.88,0,0,0-.8-.12,3,3,0,0,0-.81.09A6,6,0,0,0,18,7.19Z" style="fill:#6d6e71"/><path d="M10.88,7a.18.18,0,0,1-.21-.26,2,2,0,0,1,.52-.57,1.88,1.88,0,0,1,1.15-.37,1.86,1.86,0,0,1,1.15.42,1,1,0,0,1,.21.21l.18.23.08.16a.18.18,0,0,1-.22.25L13.58,7c-.17,0-.3-.12-.45-.14a3,3,0,0,0-.8-.13,3.52,3.52,0,0,0-.82.1C11.31,6.9,11.11,7,10.88,7Z" style="fill:#6d6e71"/><path d="M7.77,4.1A8.07,8.07,0,0,0,5.5,6.28" style="fill:none;stroke:#fff;stroke-linecap:round;stroke-miterlimit:10;stroke-width:0.892455906068932px"/><path d="M9.14,3.08a5.08,5.08,0,0,1,.73-.45" style="fill:none;stroke:#fff;stroke-linecap:round;stroke-miterlimit:10;stroke-width:0.892455906068932px"/><g style="mix-blend-mode:multiply;opacity:0.28"><path d="M31.27,16A15.64,15.64,0,0,1,0,15.28c0-.23,0-.47,0-.7s0-.52.07-.77a15.64,15.64,0,0,0,31.12.71c0,.26,0,.51,0,.77S31.28,15.76,31.27,16Z" style="fill:#a7a9ac"/></g><path d="M24.49,16.53c1.4,1.7-2.48,7-8.6,7-5.7,0-9.42-4.6-8.56-6.53s3.7.81,8.64.69S23.18,15,24.49,16.53Z" style="fill:#fff"/><line x1="21.18" y1="16.4" x2="23.19" y2="21.44" style="fill:none;stroke:#d1d3d4;stroke-miterlimit:10;stroke-width:0.75px"/><line x1="15.54" y1="17.69" x2="15.67" y2="23.59" style="fill:none;stroke:#d1d3d4;stroke-miterlimit:10;stroke-width:0.75px"/><line x1="10.1" y1="16.46" x2="8.51" y2="20.82" style="fill:none;stroke:#d1d3d4;stroke-miterlimit:10;stroke-width:0.75px"/></g></g></g></svg>