<svg xmlns="http://www.w3.org/2000/svg" viewBox="0 0 31.28 31.27"><g style="isolation:isolate"><g id="Layer_2" data-name="Layer 2"><g id="Layer_1-2" data-name="Layer 1"><path d="M31.27,15.85A15.64,15.64,0,0,1,0,15.42c0-.23,0-.47,0-.7a15.63,15.63,0,0,1,31.23.43C31.27,15.38,31.28,15.62,31.27,15.85Z" style="fill:#d1d3d4"/><ellipse cx="12.15" cy="12.13" rx="4.54" ry="2.92" transform="translate(-0.15 24.11) rotate(-89.21)" style="fill:#a7a9ac"/><ellipse cx="19.22" cy="12.23" rx="4.54" ry="2.92" transform="translate(6.73 31.28) rotate(-89.21)" style="fill:#a7a9ac"/><path d="M15,13.92c0,2.51-1.37,4.52-3,4.5s-2.89-2.07-2.85-4.58v-.12c.07-2.45,1.39-4.39,3-4.37S15,11.35,15,13.8Z" style="fill:#fff"/><path d="M14.38,13.92a2.92,2.92,0,0,1-.5,1.63,1.44,1.44,0,0,1-1.19.68c-.92,0-1.65-1.07-1.63-2.36a2.53,2.53,0,0,1,1-2.11,1.25,1.25,0,0,1,.7-.21C13.67,11.56,14.4,12.62,14.38,13.92Z" style="fill:#a7a9ac"/><path d="M14.38,13.91h-.14c-.91,0-1.64-1.06-1.63-2.35h.14C13.67,11.56,14.4,12.62,14.38,13.91Z" style="fill:#fff;mix-blend-mode:overlay;opacity:0.48"/><path d="M16.28,13.94c0,2.51,1.24,4.56,2.85,4.58s2.95-2,3-4.5V13.9c0-2.45-1.27-4.43-2.85-4.46s-2.9,1.93-3,4.38Z" style="fill:#fff"/><path d="M16.94,14a2.89,2.89,0,0,0,.45,1.65,1.47,1.47,0,0,0,1.18.71c.91,0,1.67-1,1.69-2.31a2.55,2.55,0,0,0-.93-2.14,1.36,1.36,0,0,0-.7-.23C17.72,11.62,17,12.66,16.94,14Z" style="fill:#a7a9ac"/><path d="M16.94,13.94h.14c.91,0,1.67-1,1.69-2.31h-.14C17.72,11.62,17,12.65,16.94,13.94Z" style="fill:#fff;mix-blend-mode:overlay;opacity:0.48"/><path d="M17.83,8.55a.18.18,0,0,1-.2-.27,1.94,1.94,0,0,1,.5-.57,2,2,0,0,1,1.15-.38,1.86,1.86,0,0,1,1.16.41,1.34,1.34,0,0,1,.21.2l.18.23.09.17a.18.18,0,0,1-.23.25l-.15-.06c-.17,0-.31-.12-.46-.14a2.88,2.88,0,0,0-.8-.12,3.52,3.52,0,0,0-.82.1Z" style="fill:#6d6e71"/><path d="M10.77,8.45a.18.18,0,0,1-.21-.27,1.7,1.7,0,0,1,.51-.56,1.9,1.9,0,0,1,1.15-.39,1.85,1.85,0,0,1,1.15.41,1,1,0,0,1,.21.21,1.74,1.74,0,0,1,.18.22l.09.17a.18.18,0,0,1-.22.25l-.16-.06c-.17,0-.31-.11-.46-.14a2.85,2.85,0,0,0-.8-.11,3,3,0,0,0-.81.1A6,6,0,0,0,10.77,8.45Z" style="fill:#6d6e71"/><path d="M15.54,21.53a4.21,4.21,0,0,1-2.78-1.22.45.45,0,0,1,0-.63.44.44,0,0,1,.63,0,3,3,0,0,0,4.35,0,.46.46,0,0,1,.63.06.45.45,0,0,1-.06.63A4.17,4.17,0,0,1,15.54,21.53Z" style="fill:#a7a9ac"/><path d="M7.58,4A7.9,7.9,0,0,0,5.33,6.23" style="fill:none;stroke:#fff;stroke-linecap:round;stroke-miterlimit:10;stroke-width:0.892446315396942px"/><path d="M8.94,3a4.34,4.34,0,0,1,.72-.45" style="fill:none;stroke:#fff;stroke-linecap:round;stroke-miterlimit:10;stroke-width:0.892446315396942px"/><path d="M31.27,15.85A15.64,15.64,0,0,1,0,15.42l0-.7L.09,14a15.64,15.64,0,0,0,31.13.43c0,.25,0,.51.05.77S31.28,15.62,31.27,15.85Z" style="fill:#a7a9ac"/></g></g></g></svg>