<svg xmlns="http://www.w3.org/2000/svg" xmlns:xlink="http://www.w3.org/1999/xlink" viewBox="0 0 632.25 376.58"><defs><clipPath id="clip-path" transform="translate(12.86 6.1)"><rect width="538.58" height="340.16" style="fill:none"/></clipPath><linearGradient id="linear-gradient" x1="47.49" y1="-75.94" x2="660.97" y2="516.99" gradientUnits="userSpaceOnUse"><stop offset="0.21" stop-color="#0f524c"/><stop offset="0.33" stop-color="#0f6559"/><stop offset="0.61" stop-color="#0f8d75"/><stop offset="0.83" stop-color="#0fa687"/><stop offset="0.97" stop-color="#0faf8d"/></linearGradient><linearGradient id="linear-gradient-2" x1="434.13" y1="135.24" x2="540.88" y2="351.71" gradientUnits="userSpaceOnUse"><stop offset="0" stop-color="#0fb08e"/><stop offset="1" stop-color="#0faf8d" stop-opacity="0"/></linearGradient><linearGradient id="linear-gradient-3" x1="350.88" y1="201.51" x2="555.5" y2="211.89" xlink:href="#linear-gradient-2"/><linearGradient id="linear-gradient-4" x1="578.95" y1="297.92" x2="334.3" y2="253.44" xlink:href="#linear-gradient-2"/><linearGradient id="linear-gradient-5" x1="612.79" y1="257.18" x2="371.11" y2="359.49" xlink:href="#linear-gradient-2"/><linearGradient id="linear-gradient-6" x1="411.41" y1="380.69" x2="439.58" y2="106.39" xlink:href="#linear-gradient-2"/></defs><g id="Layer_2" data-name="Layer 2"><g id="Layer_1-2" data-name="Layer 1"><g style="clip-path:url(#clip-path)"><rect width="632.25" height="367.39" style="fill:url(#linear-gradient)"/><path d="M547.82,263.32c-2.57-4.42-6.22-7.81-9.94-11.19h0a96.19,96.19,0,0,0-42.46-21.91,2.28,2.28,0,0,1-1.76-2.47,95,95,0,0,0-5.47-43.93,59.7,59.7,0,0,0-6.91,3.81l-.21.14a86.94,86.94,0,0,1,3.51,46.16,2.41,2.41,0,0,0,2,2.83,88,88,0,0,1,54.42,30,101.59,101.59,0,0,1-41.61,21.7,2.32,2.32,0,0,0-1.77,2.39,101,101,0,0,1-11.85,52.6c52.25,18.68,91.71-34.44,62-80.19" transform="translate(12.86 6.1)" style="fill:url(#linear-gradient-2)"/><path d="M486.3,171.05a96.89,96.89,0,0,0-44.1,38.82,2.26,2.26,0,0,1-2.88.95A95.33,95.33,0,0,0,396,202.43a59.62,59.62,0,0,0,1.27,7.84l0,.18a86.73,86.73,0,0,1,45,10.93,2.39,2.39,0,0,0,3.32-1,88.38,88.38,0,0,1,45.27-42.53l1.11,2.71a99.9,99.9,0,0,1,6.75,43.65,2.32,2.32,0,0,0,1.72,2.41,100.18,100.18,0,0,1,38.08,19.87l0,0c2.82,2.45,5.58,5,8.19,7.68a51.61,51.61,0,0,0,8.84-17.53c16-42.82-28.2-83.12-69.36-65.52" transform="translate(12.86 6.1)" style="fill:url(#linear-gradient-3)"/><path d="M474,328.34l.13-.3q-1-.68-2-1.38a87.67,87.67,0,0,1-28-34,2.39,2.39,0,0,0-3.29-1.09,87.56,87.56,0,0,1-61.65,7.7,102.08,102.08,0,0,1,20.88-42.06,2.31,2.31,0,0,0,0-3,100.67,100.67,0,0,1-21.27-49.62l0-.17a52.13,52.13,0,0,0-15.13,7h0c-50.34,33.14-21.45,101.3,36.12,98.38a95.63,95.63,0,0,0,37.73-7.73,2.34,2.34,0,0,1,2.94,1,95.39,95.39,0,0,0,30,32.21,61.14,61.14,0,0,0,3.52-6.93" transform="translate(12.86 6.1)" style="fill:url(#linear-gradient-4)"/><path d="M528.61,260.53l-.14-.11A87,87,0,0,1,485.68,278a2.39,2.39,0,0,0-2.06,2.79c3.6,20.66-.3,43.05-11.79,61l-2.4-1.55a99.45,99.45,0,0,1-31-31.3,2.33,2.33,0,0,0-2.82-.95,101,101,0,0,1-53.68,5c-2.65,51.3,56.78,77.8,91.75,38.77,15.23-16.47,20.75-42.58,18.86-64.55a2.4,2.4,0,0,1,1.86-2.5,95.7,95.7,0,0,0,40-18.76,60.66,60.66,0,0,0-5.83-5.45" transform="translate(12.86 6.1)" style="fill:url(#linear-gradient-5)"/><path d="M474.63,160.7l0,0c-35.53-38.94-97.61-8.21-91,43v0a96.42,96.42,0,0,0,22.84,50.58,2.29,2.29,0,0,1,0,3A96.1,96.1,0,0,0,385.08,296a61.69,61.69,0,0,0,7.7,1.21l.31,0a87.13,87.13,0,0,1,24.29-39.51,2.4,2.4,0,0,0,0-3.47q-2-1.92-3.82-4A88.43,88.43,0,0,1,391,197.91a101.5,101.5,0,0,1,46.44,6.89,2.34,2.34,0,0,0,2.85-.9,100.92,100.92,0,0,1,40.5-35.56,53,53,0,0,0-6.16-7.64" transform="translate(12.86 6.1)" style="fill:url(#linear-gradient-6)"/><path d="M-1.69-3H254.82L237.5,32.44a22.69,22.69,0,0,1-20.37,12.72H-1.69Z" transform="translate(12.86 6.1)" style="fill:#fff"/></g></g></g></svg>