<svg xmlns="http://www.w3.org/2000/svg" viewBox="0 0 31.28 31.28"><g style="isolation:isolate"><g id="Layer_2" data-name="Layer 2"><g id="Layer_1-2" data-name="Layer 1"><path d="M31.28,15.67A15.64,15.64,0,1,1,0,15.61c0-.24,0-.47,0-.71A15.64,15.64,0,0,1,31.27,15C31.28,15.2,31.28,15.44,31.28,15.67Z" style="fill:#d1d3d4"/><path d="M15,13.46A3.27,3.27,0,0,1,12.1,17c-1.61,0-2.91-1.58-2.91-3.52a3.27,3.27,0,0,1,2.93-3.51C13.73,9.94,15,11.52,15,13.46Z" style="fill:#a7a9ac;opacity:0.7000000000000001"/><path d="M22.1,13.48A3.26,3.26,0,0,1,19.18,17a3.26,3.26,0,0,1-2.91-3.53A3.26,3.26,0,0,1,19.19,10C20.8,10,22.1,11.54,22.1,13.48Z" style="fill:#a7a9ac;opacity:0.7000000000000001"/><path d="M22.1,12.18a2.92,2.92,0,1,1-5.83,0v-.08a2.92,2.92,0,1,1,5.83,0Z" style="fill:#fff"/><path d="M22.09,12a2.91,2.91,0,0,1-5.82,0,2.91,2.91,0,0,1,5.82,0Z" style="fill:#fff"/><path d="M21.06,12.18a1.74,1.74,0,0,1-.06.45,1.87,1.87,0,1,1-2.26-2.27,1.63,1.63,0,0,1,.45-.06A1.88,1.88,0,0,1,21.06,12.18Z" style="fill:#a7a9ac"/><path d="M21.06,12.18a1.74,1.74,0,0,1-.06.45,2.14,2.14,0,0,1-.45,0,1.87,1.87,0,0,1-1.87-1.87,1.63,1.63,0,0,1,.06-.45,1.63,1.63,0,0,1,.45-.06A1.88,1.88,0,0,1,21.06,12.18Z" style="fill:#fff;mix-blend-mode:overlay;opacity:0.48"/><path d="M15,12.17a2.92,2.92,0,1,1-5.83,0v-.07a2.92,2.92,0,1,1,5.83,0Z" style="fill:#fff"/><path d="M15,12A2.91,2.91,0,0,1,9.2,12,2.91,2.91,0,0,1,15,12Z" style="fill:#fff"/><path d="M14,12.17a1.61,1.61,0,0,1-.06.44,1.87,1.87,0,1,1-2.26-2.26,1.63,1.63,0,0,1,.45-.06A1.88,1.88,0,0,1,14,12.17Z" style="fill:#a7a9ac"/><path d="M14,12.17a1.61,1.61,0,0,1-.06.44,1.63,1.63,0,0,1-.45.06,1.88,1.88,0,0,1-1.87-1.88,1.61,1.61,0,0,1,.06-.44,1.63,1.63,0,0,1,.45-.06A1.88,1.88,0,0,1,14,12.17Z" style="fill:#fff;mix-blend-mode:overlay;opacity:0.48"/><path d="M13.56,6.5a.18.18,0,0,1,.21.26,1.86,1.86,0,0,1-.5.58,1.9,1.9,0,0,1-1.15.39A1.78,1.78,0,0,1,11,7.34a1.07,1.07,0,0,1-.22-.2l-.18-.23-.09-.16a.18.18,0,0,1,.22-.25l.16,0c.17,0,.3.11.45.13a3,3,0,0,0,.81.11,3,3,0,0,0,.81-.11Z" style="fill:#a7a9ac"/><path d="M20.63,6.52a.18.18,0,0,1,.21.26,1.94,1.94,0,0,1-.5.57,1.91,1.91,0,0,1-1.15.4A1.79,1.79,0,0,1,18,7.35a.7.7,0,0,1-.22-.2l-.18-.22-.09-.17a.18.18,0,0,1,.22-.25l.16,0a4.59,4.59,0,0,0,.45.14,3,3,0,0,0,.81.11A3.49,3.49,0,0,0,20,6.7Z" style="fill:#a7a9ac"/><path d="M7.53,4.42A7.66,7.66,0,0,0,5.31,6.65" style="fill:none;stroke:#fff;stroke-linecap:round;stroke-miterlimit:10;stroke-width:0.892600359442517px"/><path d="M8.88,3.36A4.87,4.87,0,0,1,9.6,2.9" style="fill:none;stroke:#fff;stroke-linecap:round;stroke-miterlimit:10;stroke-width:0.892600359442517px"/><g style="mix-blend-mode:multiply;opacity:0.7000000000000001"><path d="M31.28,15.67A15.64,15.64,0,1,1,0,15.61c0-.24,0-.47,0-.71s0-.51.05-.77a15.64,15.64,0,0,0,31.14.07c0,.25,0,.51.05.77S31.28,15.44,31.28,15.67Z" style="fill:#a7a9ac"/></g><path d="M15.82,17.74a4.13,4.13,0,0,1,2.8,1.18.45.45,0,1,1-.65.61,3,3,0,0,0-4.35,0,.45.45,0,0,1-.63,0,.44.44,0,0,1,0-.63A4.22,4.22,0,0,1,15.82,17.74Z" style="fill:#a7a9ac"/></g></g></g></svg>