<svg xmlns="http://www.w3.org/2000/svg" viewBox="0 0 61.81 28.36"><g id="Layer_2" data-name="Layer 2"><g id="Layer_1-2" data-name="Layer 1"><path d="M0,19.12V4.59A.63.63,0,0,1,.63,4H7c3.2,0,4.67,1.76,4.67,3.79A3.5,3.5,0,0,1,9,11.43s0,0,0,0a4,4,0,0,1,3.22,4c0,2.37-1.72,4.31-4.9,4.31H.63A.63.63,0,0,1,0,19.12m6.3-8.48c1.94,0,2.59-1.09,2.59-2.35S8.24,6.1,6.27,6.1H2.73v4.54Zm.2,7c2.16,0,3-1.09,3-2.51s-.88-2.59-3-2.59H2.73v5.1Z" style="fill:#fff"/><path d="M13.21,19.12V4h2.1a.63.63,0,0,1,.63.63V19.75H13.85a.64.64,0,0,1-.64-.63" style="fill:#fff"/><path d="M17.48,19.75V4.59A.64.64,0,0,1,18.12,4h6c4.17,0,6.76,3,6.76,7.83s-2.48,8-6.65,8Zm6.16-2.14c2.93,0,4.4-2,4.4-5.78S26.51,6.1,23.57,6.1H20.21V17.61Z" style="fill:#fff"/><path d="M39.38,19.75H37a1.59,1.59,0,0,1-1.8-1.28L30.19,4h2.28a1,1,0,0,1,.9.64l4.18,12.52,4-11.77A1.88,1.88,0,0,1,43.34,4h2.73a.08.08,0,0,1,.08.06c.05.21-.1.34-.28.47s-.45.26-.7.45a4.5,4.5,0,0,0-1.33,2c-.12.31-.23.63-.35.94Z" style="fill:#fff"/><path d="M61,8.51a3.33,3.33,0,0,0-.71-.79h0a6.65,6.65,0,0,0-3-1.55A.16.16,0,0,1,57.19,6a6.76,6.76,0,0,0-.39-3.11,5.48,5.48,0,0,0-.49.27h0a6.09,6.09,0,0,1,.24,3.27.17.17,0,0,0,.15.2,6.24,6.24,0,0,1,3.85,2.13,7.25,7.25,0,0,1-2.95,1.53.15.15,0,0,0-.12.17,7.19,7.19,0,0,1-.84,3.72c3.7,1.32,6.49-2.43,4.39-5.67" style="fill:#f7b51e"/><path d="M56.67,2a6.84,6.84,0,0,0-3.12,2.75.16.16,0,0,1-.21.06,6.78,6.78,0,0,0-3.06-.59,3.85,3.85,0,0,0,.09.55v0a6.15,6.15,0,0,1,3.19.77.17.17,0,0,0,.23-.07,6.26,6.26,0,0,1,3.2-3l.08.19a7.09,7.09,0,0,1,.48,3.09.15.15,0,0,0,.12.17,7.12,7.12,0,0,1,2.7,1.4h0c.2.18.39.35.58.55a3.7,3.7,0,0,0,.62-1.24A3.68,3.68,0,0,0,56.67,2" style="fill:#f7b51e"/><path d="M55.8,13.11v0l-.14-.1a6.36,6.36,0,0,1-2-2.4.16.16,0,0,0-.23-.08,6.16,6.16,0,0,1-4.36.54,7.23,7.23,0,0,1,1.48-3,.17.17,0,0,0,0-.21,7.19,7.19,0,0,1-1.51-3.51h0A3.47,3.47,0,0,0,48,4.84h0c-3.56,2.34-1.52,7.17,2.56,7a6.71,6.71,0,0,0,2.67-.55.16.16,0,0,1,.2.07,6.82,6.82,0,0,0,2.13,2.28,4.31,4.31,0,0,0,.25-.49" style="fill:#f7b51e"/><path d="M59.66,8.31h0a6.23,6.23,0,0,1-3,1.25.17.17,0,0,0-.14.2,6.17,6.17,0,0,1-.84,4.31L55.47,14a7,7,0,0,1-2.19-2.21.16.16,0,0,0-.2-.07,7.13,7.13,0,0,1-3.8.35,3.69,3.69,0,0,0,6.49,2.75,6.2,6.2,0,0,0,1.34-4.57.17.17,0,0,1,.13-.18A6.69,6.69,0,0,0,60.07,8.7a4,4,0,0,0-.41-.39" style="fill:#f7b51e"/><path d="M55.84,1.25h0a3.72,3.72,0,0,0-6.44,3h0A6.78,6.78,0,0,0,51,7.87a.16.16,0,0,1,0,.22,6.91,6.91,0,0,0-1.51,2.73,4.45,4.45,0,0,0,.55.08h0a6.07,6.07,0,0,1,1.72-2.8.16.16,0,0,0,0-.24l-.27-.29a6.29,6.29,0,0,1-1.6-3.7,7.24,7.24,0,0,1,3.29.49.16.16,0,0,0,.2-.07,7.12,7.12,0,0,1,2.87-2.51,4.51,4.51,0,0,0-.44-.54" style="fill:#f7b51e"/><text transform="translate(0 27.17)" style="font-size:4.72475004196167px;fill:#fff;font-family:Roboto-Medium, Roboto Medium;font-weight:500">CHI NHÁNH SỞ GIAO DỊCH 1</text></g></g></svg>